# WaveFront *.obj file (generated by CINEMA 4D)

mtllib ./012.mtl

v 28.36037445068359 -27.9444522857666 41.87080001831055
v 23.54250717163086 -23.73546028137207 32.00502014160156
v 25.88495063781738 -36.33515548706055 36.80175399780273
v 22.2576732635498 -28.46997833251953 24.24016380310059
v 22.2576732635498 -24.76943397521973 18.59043121337891
v 22.25767517089844 -33.92776489257812 26.92108535766602
v 23.54250717163086 -18.34570693969727 32.00502014160156
v 23.54250717163086 -30.4698486328125 32.00502014160156
v 22.25767517089844 -25.5100154876709 23.27119445800781
v 34.54518127441406 -11.11345672607422 54.53572082519531
v 23.54255676269531 -17.010498046875 32.00512313842773
v 22.2576732635498 -24.76944160461426 19.76292037963867
v 22.2576732635498 -25.75932693481445 18.87590599060059
v 22.25767517089844 -28.19538497924805 21.87557792663574
v 34.65522384643555 -12.95605945587158 54.76105880737305
v 29.68756484985352 -12.9552583694458 44.58855056762695
v 34.46484375 -12.95595550537109 54.3712158203125
v 28.36037445068359 -23.73546028137207 41.87080001831055
v 29.96632766723633 -21.57649040222168 45.15938949584961
v 22.25767517089844 -25.5100154876709 21.07294082641602
v 22.2576732635498 -25.20837593078613 21.07272720336914
v 29.96630668640137 -12.83777618408203 45.15934371948242
v 26.75441932678223 -23.73546028137207 38.58220672607422
v 22.2576732635498 -35.9261474609375 30.66855430603027
# 24 vertices

vn -0.89857506752014 -0.00000413919588 0.43881976604462
vn -0.89857679605484 -0.00000167495966 0.43881636857986
vn -0.8985767364502 0.00000105651861 0.43881636857986
vn 0 0 0
vn -0.94564384222031 0.00000005009863 0.32520413398743
vn -0.95760554075241 0.08779942989349 0.27437737584114
vn -0.99905604124069 -0.01107919029891 0.04200360178947
vn -0.97811079025269 0.1472146064043 0.14706173539162
vn -0.96333467960358 0.21691153943539 0.15791034698486
vn -0.89857846498489 -0.00000002950074 0.43881294131279
vn -0.89857852458954 0.0000000738693 0.43881279230118
vn -0.89857846498489 0.00000006222855 0.43881294131279
vn -0.87870025634766 0.03822117298841 0.47584137320518
vn -0.93743574619293 0.14299112558365 0.31743940711021
vn -0.99396306276321 0.08046013116837 0.0745892226696
vn -0.89857846498489 0.00000004966525 0.43881291151047
vn -0.89857846498489 0.00000057271421 0.43881291151047
vn -0.96229982376099 0.02396241016686 0.27093330025673
vn -1 0.00000778589038 0.00000193584015
vn -1 0.00000965973595 0.00000193583173
vn -1 0.00000066359758 0
vn -1 -0.00000207259131 -0.000001047316
vn -0.89857763051987 -0.000002137092 0.43881461024284
vn -0.99787718057632 0.04720625281334 0.04486254230142
vn -0.96121674776077 0.00001443117617 0.27579411864281
# 25 normals

vt 0.8925895690918 0.60440748929977 0
vt 0.89109683036804 0.60046219825745 0
vt 0.88507032394409 0.6292912364006 0
vt 0 1 0
vt 0.64071571826935 0.52956062555313 0
vt 0.63702023029327 0.47216618061066 0
vt 0.60086011886597 0.53941440582275 0
vt 0.56254208087921 0.36603200435638 0
vt 0.55151414871216 0.40813517570496 0
vt 0.77758300304413 0.61332219839096 0
vt 0.77284002304077 0.50190407037735 0
vt 0.71314311027527 0.53206956386566 0
vt 0.62404561042786 0.36799538135529 0
vt 0.5837037563324 0.31863737106323 0
vt 0.56076884269714 0.53242820501328 0
vt 0.7470930814743 0.47368657588959 0
vt 0.78470408916473 0.6108106970787 0
vt 0.63977420330048 0.5416111946106 0
vt 0.58082973957062 0.5503813624382 0
vt 0.59014332294464 0.56292217969894 0
vt 0.58082973957062 0.54054516553879 0
vt 0.51591980457306 0.41131782531738 0
vt 0.81627476215363 0.52904176712036 0
vt 0.60073471069336 0.55892390012741 0
vt 0.60069918632507 0.58613085746765 0
vt 0.64011561870575 0.56581044197083 0
# 26 texture coordinates

o polySurface11
usemtl default
f 10/3/3 17/2/2 15/1/1
f 9/7/7 8/6/6 2/5/5
f 8/6/6 4/9/9 6/8/8
f 23/12/12 18/11/11 16/10/10
f 8/6/6 24/14/14 3/13/13
f 4/9/9 8/6/6 13/15/15
f 18/11/11 23/12/12 1/16/16
f 8/6/6 9/7/7 13/15/15
f 10/3/3 22/17/17 17/2/2
f 23/12/12 7/18/18 2/5/5
f 9/7/7 5/20/20 21/19/19
f 2/5/5 8/6/6 1/16/16
f 13/15/15 9/7/7 20/21/21
f 6/8/8 24/14/14 8/6/6
f 13/15/15 14/22/22 4/9/9
f 9/7/7 2/5/5 7/18/18
f 21/19/19 20/21/21 9/7/7
f 7/18/18 23/12/12 16/10/10
f 16/10/10 18/11/11 19/23/23
f 9/7/7 12/24/24 5/20/20
f 7/18/18 11/26/25 12/25/24
f 19/23/23 15/1/1 17/2/2
f 16/10/10 11/26/25 7/18/18
f 17/2/2 22/17/17 19/23/23
f 12/24/24 9/7/7 7/18/18
f 19/23/23 22/17/17 16/10/10
f 1/16/16 23/12/12 2/5/5
f 3/13/13 1/16/16 8/6/6

v -31.8928108215332 -27.9444522857666 41.87080001831055
v -27.07494163513184 -23.73546028137207 32.00502014160156
v -29.41738510131836 -36.33515548706055 36.80175399780273
v -25.79010963439941 -28.46997833251953 24.24016380310059
v -25.79010963439941 -24.76943397521973 18.59043121337891
v -25.79010963439941 -33.92776489257812 26.92108535766602
v -27.07494163513184 -18.34570693969727 32.00502014160156
v -27.07494163513184 -30.4698486328125 32.00502014160156
v -25.79010963439941 -25.5100154876709 23.27119445800781
v -38.07761764526367 -11.11345672607422 54.53572082519531
v -27.07499122619629 -17.010498046875 32.00512313842773
v -25.79010963439941 -24.76944160461426 19.76292037963867
v -25.79010963439941 -25.75932693481445 18.87590599060059
v -25.79010963439941 -28.19538497924805 21.87557792663574
v -38.18766021728516 -12.95605945587158 54.76105880737305
v -33.22000122070312 -12.9552583694458 44.58855056762695
v -37.99728012084961 -12.95595550537109 54.3712158203125
v -31.8928108215332 -23.73546028137207 41.87080001831055
v -33.49876403808594 -21.57649040222168 45.15938949584961
v -25.79010963439941 -25.5100154876709 21.07294082641602
v -25.79010963439941 -25.20837593078613 21.07272720336914
v -33.49874114990234 -12.83777618408203 45.15934371948242
v -30.2868537902832 -23.73546028137207 38.58220672607422
v -25.79010963439941 -35.9261474609375 30.66855430603027
# 24 vertices

vn -0.89857506752014 0.00000413919588 -0.43881976604462
vn -0.8985767364502 0.00000172871921 -0.43881642818451
vn -0.8985767364502 -0.0000010470626 -0.43881642818451
vn -0.94564384222031 0.00000003757398 -0.32520419359207
vn -0.95760554075241 -0.08779925107956 -0.27437734603882
vn -0.99905604124069 0.01108180079609 -0.04200300946832
vn -0.97811079025269 -0.14721451699734 -0.1470617800951
vn -0.96333450078964 -0.21691209077835 -0.1579105257988
vn -0.89857864379883 0.00000006631486 -0.4388125538826
vn -0.8985783457756 -0.00000003358204 -0.43881306052208
vn -0.8985783457756 0.00000002206666 -0.43881306052208
vn -0.87870025634766 -0.03822111710906 -0.47584134340286
vn -0.93743580579758 -0.14299078285694 -0.31743940711021
vn -0.99396324157715 -0.08045833557844 -0.07458932697773
vn -0.8985783457756 0.00000002806463 -0.4388130903244
vn -0.89857882261276 -0.00000043571396 -0.43881219625473
vn -0.96229982376099 -0.02396252378821 -0.27093321084976
vn -1 0 0
vn -0.89857792854309 0.00000223511393 -0.43881404399872
vn -0.99787718057632 -0.04720729589462 -0.04486234113574
vn -0.96121674776077 -0.00001443117344 -0.27579411864281
# 21 normals

# 0 texture coordinate

o polySurface11_1
usemtl default
f 34/3/28 41/2/27 39/1/26
f 33/7/31 32/6/30 26/5/29
f 32/6/30 28/9/33 30/8/32
f 47/12/36 42/11/35 40/10/34
f 32/6/30 48/14/38 27/13/37
f 28/9/33 32/6/30 37/15/39
f 42/11/35 47/12/36 25/16/40
f 32/6/30 33/7/31 37/15/39
f 34/3/28 46/17/41 41/2/27
f 47/12/36 31/18/42 26/5/29
f 33/7/31 29/20/43 45/19/43
f 26/5/29 32/6/30 25/16/40
f 37/15/39 33/7/31 44/21/43
f 30/8/32 48/14/38 32/6/30
f 37/15/39 38/22/43 28/9/33
f 33/7/31 26/5/29 31/18/42
f 45/19/43 44/21/43 33/7/31
f 31/18/42 47/12/36 40/10/34
f 40/10/34 42/11/35 43/23/44
f 33/7/31 36/24/45 29/20/43
f 31/18/42 35/26/46 36/25/45
f 43/23/44 39/1/26 41/2/27
f 40/10/34 35/26/46 31/18/42
f 41/2/27 46/17/41 43/23/44
f 36/24/45 33/7/31 31/18/42
f 43/23/44 46/17/41 40/10/34
f 25/16/40 47/12/36 26/5/29
f 27/13/37 25/16/40 32/6/30

