# WaveFront *.obj file (generated by CINEMA 4D)

mtllib ./022.mtl

v -25.98831939697266 -32.61200714111328 26.86182022094727
v -34.93967437744141 -27.75917434692383 29.07757568359375
v -40.14433288574219 -20.12871551513672 28.40204238891602
v -22.63286209106445 -38.1181755065918 27.25275802612305
v -32.07123184204102 -27.92836570739746 28.06637954711914
v -40.65607833862305 -26.17476654052734 31.06707382202148
v -40.83893585205078 -24.76197052001953 30.08964729309082
v -40.45522689819336 -25.40886688232422 30.96379089355469
v -44.50435256958008 -21.85393524169922 31.65066909790039
v -21.59605026245117 -17.99059295654297 20.55957412719727
v -31.3719596862793 -28.08982467651367 26.44787406921387
v -22.43716430664062 -41.44638061523438 28.11634635925293
v -22.53089332580566 -41.41950225830078 27.18347358703613
v -46.95343399047852 -23.47533988952637 33.57057952880859
v -30.37847328186035 -29.69834327697754 27.66717720031738
v -27.37473297119141 -31.74198913574219 27.00221824645996
v -27.54698944091797 -30.52411460876465 25.30199432373047
v -47.06534576416016 -25.28932952880859 34.04224014282227
v -30.21120262145996 -17.74481201171875 22.81867408752441
v -23.87751388549805 -37.11532974243164 27.09462547302246
v -46.79544448852539 -23.6312255859375 33.74986267089844
v -32.16645812988281 -18.6926097869873 23.67588233947754
v -24.08751678466797 -36.82672119140625 26.31829071044922
v -22.48736000061035 -43.02475738525391 28.6952075958252
v -35.84980392456055 -18.59235954284668 25.75748634338379
v -22.93815803527832 -38.49418640136719 25.67650985717773
v -23.43440055847168 -27.13762664794922 22.20151329040527
v -40.52127075195312 -22.31725311279297 29.02591896057129
v -21.87407112121582 -42.58734512329102 28.70831871032715
v -25.09342575073242 -20.20087432861328 22.13973808288574
v -47.06171035766602 -25.72300910949707 34.41777038574219
v -23.01484870910645 -39.69946670532227 27.16873741149902
v -32.36513900756836 -23.59153938293457 25.72395515441895
v -33.32587051391602 -28.23144340515137 28.13948059082031
v -27.61260986328125 -31.72277450561523 26.56243515014648
v -25.2835750579834 -34.40883636474609 26.59228897094727
v -33.8090705871582 -19.46701622009277 25.51653480529785
v -48.48474502563477 -25.17680740356445 35.09134292602539
v -23.48676872253418 -19.50714111328125 19.83733940124512
v -23.18085670471191 -20.09408378601074 21.54532623291016
v -23.58938598632812 -17.61162948608398 20.07476234436035
v -27.32339668273926 -28.00502586364746 25.9650936126709
# 42 vertices

vn -0.26052859425545 -0.7792557477951 -0.56998711824417
vn -0.3318980038166 -0.81690555810928 -0.47170859575272
vn -0.26102182269096 -0.41854083538055 -0.86987996101379
vn -0.04998238757253 0.39887657761574 0.9156414270401
vn -0.36856910586357 -0.11014980822802 0.92305135726929
vn -0.73020339012146 -0.37879279255867 0.5686115026474
vn -0.52363586425781 -0.44442284107208 0.72683823108673
vn -0.39608365297318 0.42517921328545 0.81384295225143
vn 0.31354138255119 0.32796081900597 0.89114171266556
vn 0.34279844164848 0.01124869566411 0.93934160470963
vn 0.34327772259712 -0.05104407295585 0.93784588575363
vn -0.71409159898758 -0.69858056306839 0.04536856338382
vn -0.80700308084488 -0.51235473155975 0.29366409778595
vn -0.77665531635284 -0.51151561737061 0.36763876676559
vn -0.2530719935894 0.15881118178368 0.95432364940643
vn -0.25305110216141 0.15880613029003 0.95433002710342
vn -0.34121137857437 0.34422156214714 0.87469214200974
vn -0.74678373336792 0.15011700987816 0.64790350198746
vn -0.74678748846054 0.15012097358704 0.64789825677872
vn -0.27034172415733 -0.31546124815941 -0.90961503982544
vn -0.27576699852943 -0.26558139920235 -0.92380684614182
vn -0.17699287831783 0.1251100897789 -0.97622793912888
vn -0.89813059568405 -0.20268915593624 0.39022874832153
vn -0.27482482790947 0.95684230327606 -0.09446737170219
vn -0.19895976781845 0.96927291154861 -0.1446548551321
vn 0.08446446806192 0.6018368601799 0.79413986206055
vn -0.07357159256935 -0.35695287585258 -0.93122065067291
vn -0.4706657230854 -0.67491352558136 -0.56830054521561
vn -0.88682353496552 0.16904972493649 0.43007695674896
vn -0.67954814434052 -0.21671533584595 0.70089137554169
vn -0.4519724547863 -0.85465681552887 -0.25550469756126
vn -0.40495359897614 -0.91106384992599 0.07729998975992
vn -0.52796316146851 -0.82864832878113 0.18600209057331
vn -0.39608657360077 0.42515107989311 0.81385624408722
vn -0.65192317962646 0.30767413973808 0.69306039810181
vn -0.75344026088715 -0.03091627731919 0.65678918361664
vn -0.65684926509857 -0.4364932179451 -0.61483550071716
vn -0.57550084590912 0.06267445534468 -0.8153960108757
vn -0.54193717241287 -0.04087451845407 -0.83942443132401
vn -0.35191887617111 -0.1952541321516 -0.91543918848038
vn -0.63968253135681 -0.57445442676544 -0.51069396734238
vn -0.21196496486664 -0.95888304710388 -0.18871700763702
vn -0.30086317658424 -0.95288646221161 -0.03858424350619
vn -0.04717245697975 -0.67699640989304 0.73447304964066
vn -0.27022898197174 -0.6092044711113 0.74555093050003
vn 0.04568669945002 0.08476153761148 0.99535328149796
vn -0.06495701521635 -0.1276283711195 0.98969268798828
vn -0.04992862045765 0.51280122995377 0.85705429315567
vn -0.65682780742645 -0.43647807836533 -0.61486917734146
vn -0.22118309140205 -0.22476732730865 -0.94897717237473
vn -0.23732912540436 -0.1642079949379 -0.95745009183884
vn -0.55169612169266 -0.7193016409874 -0.42218074202538
vn -0.86333847045898 -0.19324533641338 0.46615758538246
vn -0.48563519120216 -0.84148716926575 -0.23676525056362
vn -0.45522266626358 -0.48935386538506 -0.74384480714798
vn -0.45519477128983 -0.489386677742 -0.74384027719498
vn -0.11005351692438 0.98354482650757 -0.14327521622181
vn -0.09469840675592 0.98227888345718 -0.16174165904522
vn -0.04992089420557 0.51280558109283 0.85705214738846
vn -0.86334437131882 -0.19326587021351 0.46613812446594
vn -0.12680287659168 -0.62737023830414 0.76832777261734
vn 0.09737890958786 0.15532730519772 0.98305177688599
vn -0.02591505460441 -0.99946677684784 0.01986459828913
vn -0.19561319053173 -0.84998351335526 -0.48914569616318
vn -0.22773492336273 -0.77640950679779 -0.58764362335205
vn -0.26751700043678 -0.59150683879852 -0.76062762737274
vn -0.14978252351284 -0.94974720478058 -0.27485525608063
vn 0.34324994683266 -0.05103535205126 0.93785655498505
vn -0.93086713552475 -0.34835940599442 0.11014582961798
vn -0.96013396978378 -0.11164623498917 0.25627690553665
vn -0.67908102273941 0.66250640153885 0.31612384319305
vn 0.15348735451698 0.55778932571411 0.8156670331955
vn 0.15347127616405 0.55778455734253 0.8156732916832
vn -0.40985253453255 0.90633976459503 -0.10280624032021
vn -0.27629160881042 0.41241556406021 0.86808776855469
vn -0.41102543473244 -0.04150469228625 -0.91067856550217
vn -0.50238931179047 0.34494435787201 -0.79285454750061
vn -0.6896920800209 0.39834955334663 -0.60468375682831
vn -0.90468072891235 -0.002196328016 0.42608451843262
vn -0.88681024312973 0.16905616223812 0.43010181188583
vn -0.61932176351547 0.015799716115 -0.78497833013535
vn -0.61932957172394 0.01577125303447 -0.78497272729874
vn -0.80734348297119 0.33733862638474 -0.48414790630341
vn -0.22727993130684 -0.29186245799065 -0.92906409502029
vn -0.15672495961189 -0.28873673081398 -0.94449371099472
vn -0.20471349358559 -0.27141836285591 -0.94043844938278
vn -0.20469228923321 -0.27139589190483 -0.94044953584671
vn -0.17664757370949 -0.11368825286627 -0.97768634557724
vn -0.22725129127502 -0.29186806082726 -0.92906934022903
vn -0.48309782147408 -0.2234294116497 -0.84657889604568
vn -0.30141684412956 -0.38292446732521 -0.87322205305099
vn -0.85635083913803 -0.34271496534348 0.3862766623497
vn -0.78862971067429 -0.4861321747303 0.3764820098877
vn -0.48309391736984 -0.22340016067028 -0.84658885002136
vn -0.26751729846001 -0.5915305018425 -0.76060903072357
vn -0.24085213243961 0.01125644892454 0.97049653530121
vn -0.04714518412948 -0.6769996881485 0.73447173833847
vn 0.09881307184696 -0.75162720680237 0.65214455127716
vn 0.24288386106491 0.13609531521797 0.96046108007431
vn 0.24285537004471 0.1361026763916 0.96046721935272
vn 0.13403162360191 0.18485736846924 0.97358268499374
vn -0.14979633688927 -0.94973927736282 -0.27487513422966
vn -0.38504859805107 0.91467893123627 0.12288206070662
vn -0.06754835695028 -0.98438268899918 -0.16256672143936
vn -0.3008486032486 -0.95288950204849 -0.0386228710413
vn -0.29364129900932 0.10716503113508 -0.94988971948624
vn -0.22175922989845 0.09324886649847 -0.97063249349594
vn -0.28026106953621 -0.23319846391678 -0.9311671257019
vn 0.08443869650364 0.60186076164246 0.79412448406219
vn -0.89813804626465 -0.20267727971077 0.39021781086922
vn 0.14792685210705 0.39674749970436 0.90592992305756
vn 0.14794041216373 0.39671763777733 0.90594083070755
vn 0.23201964795589 0.37576991319656 0.89719778299332
vn 0.112778685987 0.61727738380432 0.7786203622818
vn 0.11275076121092 0.61727756261826 0.77862423658371
vn 0.05936390534043 0.51695722341537 0.85395032167435
vn 0.03726612403989 0.2839897274971 0.95810282230377
vn 0.13134151697159 0.3060462474823 0.94291311502457
vn 0.13131062686443 0.3060214817524 0.94292545318604
vn -0.10039758682251 0.07442111521959 0.99216020107269
vn -0.86759859323502 -0.44711416959763 0.21762727200985
vn -0.24130561947823 0.43987366557121 0.86503338813782
vn -0.60563188791275 0.49601542949677 0.6222368478775
vn -0.39825683832169 -0.65252101421356 0.64467656612396
vn -0.29364311695099 0.10717988014221 -0.94988745450974
vn 0.09736186265945 0.15530908107758 0.98305630683899
vn 0.15922293066978 0.38537400960922 0.90891963243484
vn -0.66810929775238 -0.68211817741394 0.29722845554352
vn -0.37044620513916 0.23172920942307 0.89948385953903
vn 0.13703398406506 0.10476499795914 0.98501062393188
vn 0.21949096024036 -0.77511125802994 0.59247463941574
vn -0.23732507228851 -0.16417832672596 -0.9574561715126
vn -0.20066148042679 -0.23175878822803 -0.95185232162476
vn -0.26731604337692 -0.45610198378563 -0.84883046150208
vn -0.63732123374939 0.4201183617115 -0.64600479602814
vn -0.27483028173447 0.9568447470665 -0.09442663192749
vn -0.26142686605453 0.59966450929642 0.75634545087814
vn -0.38588529825211 0.19362220168114 -0.90199941396713
vn 0.06104661524296 0.64350479841232 0.76300382614136
vn -0.33806774020195 0.94085693359375 0.02232561074197
# 140 normals

o ray.1
usemtl default
f 11//3 34//2 7//1
f 16//7 36//6 1//5
f 38//11 31//10 21//9
f 17//14 36//13 35//12
f 12//18 29//17 4//16
f 39//22 27//21 22//20
f 37//26 19//25 25//24
f 11//28 17//27 35//12
f 1//5 36//6 20//30
f 35//33 15//32 11//31
f 12//18 24//35 29//34
f 20//30 12//36 4//16
f 28//40 18//39 14//38
f 34//43 2//42 7//1
f 16//47 5//46 15//45
f 17//51 27//50 26//49
f 18//55 31//54 38//53
f 30//59 41//58 19//57
f 5//62 2//61 15//45
f 7//66 6//65 18//64
f 7//1 2//42 6//67
f 13//70 32//69 26//49
f 21//72 14//71 38//53
f 30//59 40//75 41//74
f 3//77 28//76 14//38
f 24//80 12//79 13//70
f 19//57 41//58 39//22
f 38//53 14//83 18//82
f 33//86 28//85 22//84
f 11//3 33//88 17//51
f 28//40 7//91 18//90
f 36//93 23//92 20//30
f 11//31 15//32 34//43
f 4//16 1//96 20//30
f 8//99 6//98 2//97
f 2//97 5//101 8//99
f 15//45 2//61 34//43
f 9//103 14//71 21//72
f 6//67 31//104 18//64
f 19//57 39//107 22//106
f 22//20 27//108 33//86
f 13//70 12//79 32//110
f 9//114 8//113 37//112
f 37//26 30//116 19//57
f 42//118 40//117 30//59
f 4//16 40//117 42//118
f 23//121 17//120 26//49
f 26//49 32//69 23//121
f 23//121 36//13 17//14
f 35//33 16//124 15//45
f 42//118 30//116 37//26
f 22//84 28//76 3//77
f 21//9 31//10 8//99
f 21//9 8//113 9//114
f 42//118 37//127 5//62
f 42//118 1//96 4//16
f 16//7 35//128 36//93
f 16//47 1//130 42//118
f 42//118 5//46 16//47
f 31//131 6//98 8//99
f 20//30 23//92 32//110
f 33//86 27//108 17//51
f 8//99 5//101 37//112
f 11//3 7//134 28//133
f 3//77 14//135 9//103
f 28//133 33//88 11//3
f 32//110 12//36 20//30
f 25//24 19//25 22//106
f 41//74 40//75 10//137
f 25//24 22//138 3//77
f 9//114 37//139 25//24
f 25//24 3//140 9//114

v 25.9883918762207 -32.61198806762695 26.86188316345215
v 34.93972396850586 -27.75914001464844 29.07769584655762
v 40.14437103271484 -20.1286735534668 28.40219688415527
v 22.63294219970703 -38.1181640625 27.25279808044434
v 32.07128524780273 -27.92833709716797 28.06648254394531
v 40.65611267089844 -26.17472457885742 31.06722831726074
v 40.83897399902344 -24.76192665100098 30.08980369567871
v 40.45526123046875 -25.4088249206543 30.96394538879395
v 44.50437545776367 -21.85388565063477 31.65084838867188
v 21.59613418579102 -17.9905834197998 20.55961608886719
v 31.37202644348145 -28.08979797363281 26.44797134399414
v 22.43724632263184 -41.44636917114258 28.11638450622559
v 22.53098106384277 -41.41949081420898 27.18351364135742
v 46.95344924926758 -23.47528648376465 33.57077407836914
v 30.3785343170166 -29.69831848144531 27.66726875305176
v 27.37480354309082 -31.74197006225586 27.00229072570801
v 27.54706764221191 -30.52409362792969 25.30206871032715
v 47.06536102294922 -25.28927612304688 34.04243469238281
v 30.21127128601074 -17.74478530883789 22.81876945495605
v 23.87759399414062 -37.11531829833984 27.09467315673828
v 46.79545974731445 -23.63117218017578 33.75005722045898
v 32.16652297973633 -18.69257926940918 23.67598915100098
v 24.08759880065918 -36.82670593261719 26.3183422088623
v 22.48744010925293 -43.02474594116211 28.69524574279785
v 35.84985733032227 -18.59232330322266 25.75761413574219
v 22.9382495880127 -38.49417495727539 25.67655372619629
v 23.43449020385742 -27.13761138916016 22.20156288146973
v 40.52130889892578 -22.31720924377441 29.02607345581055
v 21.87414932250977 -42.58733749389648 28.70835304260254
v 25.09350395202637 -20.20085716247559 22.13980102539062
v 47.06172561645508 -25.72295570373535 34.41796493530273
v 23.01493072509766 -39.69945526123047 27.16878128051758
v 32.36520004272461 -23.59151077270508 25.72406005859375
v 33.325927734375 -28.23141288757324 28.13958930969238
v 27.6126823425293 -31.72275352478027 26.56250953674316
v 25.28365325927734 -34.40882110595703 26.59234809875488
v 33.80912399291992 -19.46698379516602 25.51665115356445
v 48.48475646972656 -25.1767520904541 35.09154510498047
v 23.48686027526855 -19.50712585449219 19.83739280700684
v 23.18093681335449 -20.09407043457031 21.54537773132324
v 23.5894718170166 -17.61161422729492 20.0748176574707
v 27.32346725463867 -28.00500679016113 25.96516799926758
# 42 vertices

vn -0.26053348183632 0.77925509214401 0.56998580694199
vn -0.331902384758 0.8169047832489 0.47170689702034
vn -0.26102787256241 0.41854003071785 0.86987853050232
vn -0.04997611790895 -0.39887633919716 -0.91564190387726
vn -0.36856374144554 0.11014946550131 -0.92305356264114
vn -0.7302006483078 0.37879166007042 -0.56861573457718
vn -0.52363234758377 0.44442212581635 -0.72684121131897
vn -0.39607793092728 -0.42517963051796 -0.81384551525116
vn 0.31354737281799 -0.32795989513397 -0.89113992452621
vn 0.34280413389206 -0.01124770380557 -0.9393395781517
vn 0.34328329563141 0.05104506388307 -0.93784379959106
vn -0.71409267187119 0.6985792517662 -0.04537260532379
vn -0.8070023059845 0.51235336065292 -0.29366880655289
vn -0.7766540646553 0.51151430606842 -0.36764326691628
vn -0.25306594371796 -0.15881130099297 -0.9543251991272
vn -0.25304505228996 -0.15880623459816 -0.95433157682419
vn -0.34120544791222 -0.34422186017036 -0.87469434738159
vn -0.74677950143814 -0.15011815726757 -0.6479080915451
vn -0.74678331613541 -0.15012212097645 -0.64790284633636
vn -0.2703478038311 0.31546041369438 0.90961354970932
vn -0.2757730782032 0.265580534935 0.92380529642105
vn -0.17699854075909 -0.12511080503464 0.97622680664062
vn -0.89812862873077 0.2026876360178 -0.39023411273956
vn -0.27482363581657 -0.95684283971786 0.09446535259485
vn -0.1989588290453 -0.96927332878113 0.14465329051018
vn 0.08447038382292 -0.60183638334274 -0.79413962364197
vn -0.07357788085938 0.3569523692131 0.93122035264969
vn -0.47067043185234 0.67491239309311 0.56829792261124
vn -0.88682061433792 -0.1690512150526 -0.43008238077164
vn -0.67954432964325 0.21671430766582 -0.70089542865753
vn -0.45197561383247 0.85465586185455 0.25550228357315
vn -0.40495485067368 0.91106307506561 -0.07730209827423
vn -0.52796357870102 0.82864743471146 -0.18600496649742
vn -0.39608088135719 -0.42515152692795 -0.81385880708694
vn -0.65191847085953 -0.3076750934124 -0.69306445121765
vn -0.75343632698059 0.03091512061656 -0.65679371356964
vn -0.65685379505157 0.4364917576313 0.6148316860199
vn -0.57550567388535 -0.06267583370209 0.81539249420166
vn -0.54194235801697 0.04087318852544 0.83942115306854
vn -0.35192477703094 0.1952531337738 0.91543716192245
vn -0.63968670368195 0.57445311546326 0.51069033145905
vn -0.21196787059307 0.95888262987137 0.18871606886387
vn -0.30086517333984 0.95288586616516 0.03858278691769
vn -0.04716928303242 0.67699652910233 -0.7344731092453
vn -0.27022561430931 0.60920423269272 -0.74555236101151
vn 0.04569287225604 -0.08476108312607 -0.99535304307938
vn -0.06495127826929 0.12762862443924 -0.98969304561615
vn -0.04992248490453 -0.51280099153519 -0.85705476999283
vn -0.65683233737946 0.43647664785385 0.6148653626442
vn -0.22118924558163 0.22476656734943 0.94897592067718
vn -0.23733520507812 0.16420719027519 0.95744872093201
vn -0.55169999599457 0.7193004488945 0.42217767238617
vn -0.86333602666855 0.19324390590191 -0.46616271138191
vn -0.48563820123672 0.84148615598679 0.23676265776157
vn -0.45522806048393 0.4893527328968 0.74384224414825
vn -0.45520016551018 0.48938554525375 0.74383771419525
vn -0.1100525483489 -0.98354506492615 0.14327418804169
vn -0.09469754993916 -0.98227912187576 0.16174072027206
vn -0.04991476237774 -0.51280534267426 -0.85705262422562
vn -0.86334192752838 0.19326443970203 -0.46614325046539
vn -0.12679940462112 0.62737035751343 -0.76832830905914
vn 0.09738512337208 -0.15532675385475 -0.98305124044418
vn -0.02591680176556 0.99946671724319 -0.019864378497
vn -0.19561772048473 0.84998297691345 0.48914483189583
vn -0.22773991525173 0.7764088511467 0.58764255046844
vn -0.26752272248268 0.5915060043335 0.76062625646591
vn -0.14978595077991 0.94974684715271 0.27485471963882
vn 0.34325551986694 0.05103634297848 -0.93785440921783
vn -0.93086713552475 0.34835770726204 -0.1101513132453
vn -0.9601326584816 0.11164455115795 -0.25628268718719
vn -0.67907786369324 -0.6625075340271 -0.31612819433212
vn 0.15349332988262 -0.55778872966766 -0.81566631793976
vn 0.15347723662853 -0.55778396129608 -0.81567257642746
vn -0.40985146164894 -0.90634053945541 0.1028034389019
vn -0.27628561854362 -0.41241574287415 -0.86808955669403
vn -0.41103100776672 0.04150358214974 0.91067612171173
vn -0.5023934841156 -0.34494557976723 0.79285138845444
vn -0.6896950006485 -0.39835107326508 0.60467946529388
vn -0.90467816591263 0.00219480087981 -0.42608997225761
vn -0.88680738210678 -0.1690576672554 -0.43010723590851
vn -0.61932647228241 -0.01580116525292 0.78497457504272
vn -0.61933428049088 -0.0157727021724 0.78496897220612
vn -0.80734574794769 -0.33734029531479 0.48414289951324
vn -0.22728608548641 0.29186168313026 0.92906284332275
vn -0.15673120319843 0.28873610496521 0.94449287652969
vn -0.20471967756748 0.27141764760017 0.94043731689453
vn -0.2046984732151 0.27139517664909 0.94044840335846
vn -0.17665369808674 0.11368754506111 0.97768533229828
vn -0.2272574454546 0.2918673157692 0.92906808853149
vn -0.48310330510139 0.22342817485332 0.84657609462738
vn -0.30142283439636 0.38292357325554 0.87322038412094
vn -0.85634917020798 0.34271356463432 -0.38628172874451
vn -0.78862833976746 0.48613083362579 -0.37648659944534
vn -0.48309946060181 0.22339893877506 0.84658598899841
vn -0.26752302050591 0.59152978658676 0.7606076002121
vn -0.2408462613821 -0.01125653274357 -0.97049802541733
vn -0.04714201390743 0.67699992656708 -0.73447173833847
vn 0.09881559759378 0.75162762403488 -0.65214371681213
vn 0.24288992583752 -0.13609452545643 -0.96045964956284
vn 0.24286141991615 -0.13610185682774 -0.96046584844589
vn 0.13403785228729 -0.18485675752163 -0.97358196973801
vn -0.14979976415634 0.94973891973495 0.27487459778786
vn -0.38504615426064 -0.914679646492 -0.12288472801447
vn -0.06755118072033 0.98438251018524 0.16256666183472
vn -0.30085062980652 0.95288890600204 0.0386214107275
vn -0.29364681243896 -0.10716594010592 0.94988787174225
vn -0.22176492214203 -0.09324964880943 0.97063112258911
vn -0.28026711940765 0.23319758474827 0.9311655163765
vn 0.08444461226463 -0.60186034440994 -0.79412418603897
vn -0.89813607931137 0.20267574489117 -0.39022317528725
vn 0.14793306589127 -0.39674690365791 -0.90592920780182
vn 0.14794662594795 -0.39671701192856 -0.90594005584717
vn 0.23202577233315 -0.37576913833618 -0.89719653129578
vn 0.11278454214334 -0.61727684736252 -0.77861988544464
vn 0.11275660991669 -0.61727702617645 -0.7786238193512
vn 0.05937002599239 -0.51695680618286 -0.85395014286041
vn 0.03727244213223 -0.28398931026459 -0.95810270309448
vn 0.13134780526161 -0.30604565143585 -0.94291239976883
vn 0.13131688535213 -0.30602088570595 -0.9429247379303
vn -0.1003914475441 -0.07442092895508 -0.99216079711914
vn -0.86759811639786 0.44711261987686 -0.21763235330582
vn -0.24129956960678 -0.4398737847805 -0.86503499746323
vn -0.60562717914581 -0.49601632356644 -0.62224072217941
vn -0.39825415611267 0.65252047777176 -0.64467871189117
vn -0.29364866018295 -0.10718079656363 0.94988566637039
vn 0.09736809134483 -0.15530852973461 -0.98305583000183
vn 0.15922912955284 -0.38537335395813 -0.90891885757446
vn -0.66810876131058 0.68211704492569 -0.29723224043846
vn -0.37044033408165 -0.23172955214977 -0.89948618412018
vn 0.13704010844231 -0.10476437211037 -0.9850098490715
vn 0.21949309110641 0.77511191368103 -0.59247303009033
vn -0.23733116686344 0.16417752206326 0.95745480060577
vn -0.20066766440868 0.23175805807114 0.95185118913651
vn -0.2673220038414 0.4561011493206 0.8488290309906
vn -0.63732433319092 -0.42011979222298 0.64600080251694
vn -0.27482908964157 -0.95684534311295 0.09442460536957
vn -0.26142117381096 -0.59966468811035 -0.75634729862213
vn -0.38589039444923 -0.19362325966358 0.90199702978134
vn 0.06105242297053 -0.64350438117981 -0.76300370693207
vn -0.33806586265564 -0.9408575296402 -0.02232800610363
# 140 normals

o ray
usemtl default
f 53//143 76//142 49//141
f 58//147 78//146 43//145
f 80//151 73//150 63//149
f 59//154 78//153 77//152
f 54//158 71//157 46//156
f 81//162 69//161 64//160
f 79//166 61//165 67//164
f 53//168 59//167 77//152
f 43//145 78//146 62//170
f 77//173 57//172 53//171
f 54//158 66//175 71//174
f 62//170 54//176 46//156
f 70//180 60//179 56//178
f 76//183 44//182 49//141
f 58//187 47//186 57//185
f 59//191 69//190 68//189
f 60//195 73//194 80//193
f 72//199 83//198 61//197
f 47//202 44//201 57//185
f 49//206 48//205 60//204
f 49//141 44//182 48//207
f 55//210 74//209 68//189
f 63//212 56//211 80//193
f 72//199 82//215 83//214
f 45//217 70//216 56//178
f 66//220 54//219 55//210
f 61//197 83//198 81//162
f 80//193 56//223 60//222
f 75//226 70//225 64//224
f 53//143 75//228 59//191
f 70//180 49//231 60//230
f 78//233 65//232 62//170
f 53//171 57//172 76//183
f 46//156 43//236 62//170
f 50//239 48//238 44//237
f 44//237 47//241 50//239
f 57//185 44//201 76//183
f 51//243 56//211 63//212
f 48//207 73//244 60//204
f 61//197 81//247 64//246
f 64//160 69//248 75//226
f 55//210 54//219 74//250
f 51//254 50//253 79//252
f 79//166 72//256 61//197
f 84//258 82//257 72//199
f 46//156 82//257 84//258
f 65//261 59//260 68//189
f 68//189 74//209 65//261
f 65//261 78//153 59//154
f 77//173 58//264 57//185
f 84//258 72//256 79//166
f 64//224 70//216 45//217
f 63//149 73//150 50//239
f 63//149 50//253 51//254
f 84//258 79//267 47//202
f 84//258 43//236 46//156
f 58//147 77//268 78//233
f 58//187 43//270 84//258
f 84//258 47//186 58//187
f 73//271 48//238 50//239
f 62//170 65//232 74//250
f 75//226 69//248 59//191
f 50//239 47//241 79//252
f 53//143 49//274 70//273
f 45//217 56//275 51//243
f 70//273 75//228 53//143
f 74//250 54//176 62//170
f 67//164 61//165 64//246
f 83//214 82//215 52//277
f 67//164 64//278 45//217
f 51//254 79//279 67//164
f 67//164 45//280 51//254

