# WaveFront *.obj file (generated by CINEMA 4D)

mtllib ./044.mtl

v 0 -35.91043090820312 66.3753662109375
v 0 -43.97970199584961 66.3753662109375
v 6.5281777381897 -39.94506454467773 63.88182067871094
v 6.5281777381897 -39.94506454467773 55.81254959106445
v 0 -35.91043090820312 53.31900787353516
v 0 -43.97970199584961 53.31900787353516
v -6.5281777381897 -39.94506454467773 55.81254959106445
v -6.5281777381897 -39.94506454467773 63.88182067871094
v 4.0346360206604 -33.41688537597656 59.84718704223633
v -4.0346360206604 -33.41688537597656 59.84718704223633
v -4.0346360206604 -46.47324371337891 59.84718704223633
v 4.0346360206604 -46.47324371337891 59.84718704223633
v -3.14013814926147 -40.15316009521484 41.94569778442383
v -1.55659925937653 -41.10612869262695 51.2490119934082
v -3.40324544906616 -40.46717834472656 55.7669792175293
v -3.17860221862793 -37.03647613525391 32.86510467529297
v -0.53072690963745 -40.18250274658203 59.75144195556641
v 0.08755689114332 -38.57240676879883 59.67583847045898
v -1.3025404214859 -41.27060699462891 29.80204582214355
v -3.65783786773682 -42.21034622192383 53.60958099365234
v 2.17048048973083 -39.31336212158203 34.03318023681641
v -3.1177659034729 -41.26979827880859 47.53206253051758
v -2.99293756484985 -42.59083557128906 42.80044937133789
v 2.32494282722473 -36.95477676391602 46.32200241088867
v 1.18865180015564 -41.89037322998047 44.96017837524414
v -4.42623710632324 -40.00304412841797 38.18984603881836
v 0.71249216794968 -42.21034622192383 53.60958099365234
v -3.41045570373535 -41.03117752075195 52.69091033935547
v -5.27028846740723 -36.95477676391602 46.32200241088867
v 0.04760345816612 -42.59084320068359 42.80045318603516
v -3.75167179107666 -39.780029296875 31.70438766479492
v -0.08167555183172 -43.37171173095703 47.68587875366211
v -5.62130975723267 -36.29429244995117 27.75718307495117
v 2.68230056762695 -36.20119857788086 51.20241165161133
v -5.28379201889038 -35.86341094970703 40.93802261352539
v -2.76061391830444 -43.32029724121094 49.79483032226562
v -1.47267282009125 -39.318603515625 39.61117553710938
v 0.68999367952347 -40.04537582397461 40.77767181396484
v 0.23325644433498 -37.03647613525391 32.86510467529297
v -2.80134344100952 -39.09326553344727 60.75193023681641
v -2.9228847026825 -38.57880783081055 37.13106155395508
v -1.47267293930054 -37.47067260742188 34.20527648925781
v -4.13399744033813 -41.89037322998047 44.96018218994141
v 2.33844685554504 -35.86341094970703 40.93801879882812
v -2.38459753990173 -42.39917373657227 55.75910186767578
v 1.15945637226105 -39.78894424438477 30.3994026184082
v -1.47124600410461 -40.49309158325195 32.31925582885742
v -1.41781258583069 -41.04204177856445 45.6838493347168
v -4.46975088119507 -40.55374526977539 29.35973739624023
v -1.36724376678467 -40.08681869506836 56.28118896484375
v -1.80647015571594 -39.60811996459961 61.06624984741211
v 1.29820883274078 -37.92328262329102 34.85715866088867
v -6.33787775039673 -38.60263442993164 28.96893692016602
v -0.40764632821083 -43.04988861083984 53.19589996337891
v 3.01429319381714 -37.84547805786133 29.09053802490234
v -1.47267270088196 -37.98418045043945 60.4854850769043
v -3.03290271759033 -38.57240676879883 59.67584228515625
v 0.46511003375053 -41.03117370605469 52.69091033935547
v -4.24355459213257 -37.92328643798828 34.85715866088867
v -5.62764644622803 -36.20120239257812 51.20241165161133
v -0.02246120944619 -38.57880783081055 37.13106155395508
v -1.47267317771912 -37.19219207763672 62.67339706420898
v 0.39738982915878 -40.37589645385742 34.9239387512207
v 0.45789968967438 -40.4671745300293 55.7669792175293
v 0.17242021858692 -41.26979446411133 47.53205871582031
# 65 vertices

vn 0 0.93417221307755 0.35682246088982
vn 0 0 0
vn 0.57735031843185 0.57735008001328 0.57735049724579
vn 0.93417239189148 0.35682195425034 0
vn 0.57735013961792 0.57735025882721 -0.5773503780365
vn 0 0.93417221307755 -0.35682246088982
vn -0.57735013961792 0.57735025882721 -0.5773503780365
vn -0.93417239189148 0.35682198405266 0
vn -0.57735031843185 0.57735008001328 0.57735049724579
vn 0 -0.93417239189148 0.35682201385498
vn 0.57735055685043 -0.57735002040863 0.57735031843185
vn 0.93417239189148 -0.35682198405266 0
vn 0.5773503780365 -0.57735025882721 -0.57735025882721
vn 0 -0.93417239189148 -0.35682201385498
vn -0.5773503780365 -0.57735025882721 -0.57735025882721
vn -0.93417239189148 -0.35682198405266 0
vn -0.57735055685043 -0.57735002040863 0.57735031843185
vn -0.35682255029678 0 0.93417221307755
vn 0.35682255029678 0 0.93417221307755
vn 0.3568220436573 0 -0.93417239189148
vn -0.3568220436573 0 -0.93417239189148
vn 0.90462720394135 -0.42502582073212 -0.03166502714157
vn -0.25972831249237 -0.89857572317123 0.35369884967804
vn -0.57685333490372 -0.61717337369919 0.5351048707962
vn -0.1231806576252 -0.73362916707993 0.66829240322113
vn -0.16905057430267 0.93082863092422 0.32400605082512
vn -0.00000046142713 0.9401627779007 0.34072557091713
vn -0.34755784273148 0.86557102203369 0.36054170131683
vn -0.19115029275417 0.90679979324341 0.37573349475861
vn -0.73207259178162 0.58918350934982 0.34195390343666
vn 0.11611769348383 0.90756118297577 -0.4035459458828
vn 0.00278810178861 0.94830656051636 -0.31734347343445
vn 0.1105187907815 0.94528889656067 -0.30694389343262
vn 0.70252430438995 -0.7086027264595 -0.06589241325855
vn 0.57441729307175 -0.80998659133911 -0.11818010360003
vn 0.29804313182831 -0.93887841701508 -0.17227178812027
vn 0.55461084842682 0.46686637401581 0.68879795074463
vn -0.98826611042023 0.14387133717537 0.05129412189126
vn -0.97603988647461 0.21702237427235 0.01573048904538
vn -0.99648886919022 0.01852136664093 0.08165070414543
vn -0.43418833613396 0.1370110809803 0.89034175872803
vn 0.09533627331257 0.93935990333557 0.32941451668739
vn 0.46165147423744 0.82962208986282 0.31401443481445
vn 0.13617894053459 0.92806202173233 0.3466354906559
vn 0.70554226636887 0.69014495611191 -0.16096621751785
vn -0.52635550498962 0.46166637539864 0.71401262283325
vn 0.39545667171478 0.91619491577148 -0.06481467187405
vn -0.88212841749191 -0.37336301803589 0.28714033961296
vn -0.47751182317734 -0.87114202976227 0.11442895233631
vn -0.6348329782486 -0.76433205604553 -0.11306487768888
vn -0.41827118396759 -0.89560949802399 -0.15143585205078
vn 0.24743638932705 -0.94314932823181 0.22191117703915
vn -0.30222782492638 -0.95317077636719 0.01112520694733
vn 0.86154407262802 -0.31203216314316 0.40047189593315
vn 0.6231597661972 -0.6236280798912 0.47197449207306
vn 0.65212255716324 -0.41470512747765 0.63463044166565
vn 0.85585325956345 -0.31105574965477 0.41323056817055
vn 0.96019107103348 -0.25346097350121 0.11743377149105
vn -0.55923122167587 -0.80913388729095 0.18045175075531
vn -0.49490001797676 -0.76867747306824 0.40522691607475
vn -0.69460201263428 -0.71612322330475 -0.06852469593287
vn 0.07715084403753 -0.99636125564575 -0.03622112795711
vn 0.79324573278427 0.56168901920319 0.2350887209177
vn 0.82571959495544 0.50718909502029 0.24687317013741
vn 0.68259054422379 0.69520819187164 0.22529025375843
vn -0.63578689098358 -0.74953407049179 0.1843194514513
vn 0.70646661520004 0.67290818691254 0.21931590139866
vn 0.26575812697411 0.92548042535782 0.26992332935333
vn 0.63485419750214 0.46261149644852 0.61883014440536
vn -0.12397264689207 0.974729180336 -0.18583284318447
vn -0.00175169482827 0.98010683059692 -0.19846300780773
vn 0.37727597355843 -0.91419893503189 -0.14799706637859
vn -0.11280950158834 0.90718674659729 -0.40532237291336
vn -0.09913536906242 0.94636899232864 -0.30750262737274
vn -0.88250398635864 0.40204751491547 0.24401734769344
vn -0.70167064666748 0.65535634756088 0.27958258986473
vn -0.85585361719131 -0.3110553920269 0.41323018074036
vn -0.63251602649689 0.48490124940872 0.60398203134537
vn 0.96588957309723 0.25130611658096 0.06247007101774
vn 0.99129676818848 0.09043771773577 0.09566441178322
vn 0.9760400056839 0.21702171862125 0.01573052816093
vn 0.88858354091644 -0.33838859200478 -0.30969735980034
vn -0.47033303976059 -0.44281780719757 0.76334738731384
vn 0.00000000373453 0.94624197483063 0.3234595656395
vn 0.1742567718029 0.94770216941834 0.26738575100899
vn 0.03873337805271 0.96137827634811 0.27249136567116
vn -0.09750967472792 0.95719224214554 0.27253416180611
vn -0.90462720394135 -0.42502588033676 -0.0316650532186
vn 0.62252300977707 -0.76655876636505 0.15764756500721
vn 0.130002617836 0.97320997714996 -0.18963564932346
vn 0.68666368722916 -0.72050827741623 -0.0967513024807
vn 0.47145748138428 -0.88168329000473 0.01903585903347
vn -0.97688043117523 0.05545526742935 0.20646868646145
vn 0.00074216583744 0.918785572052 -0.39475631713867
vn -0.0000003405388 0.94029152393341 -0.34037017822266
vn -0.92308688163757 -0.11090895533562 -0.36825233697891
vn -0.71371245384216 0.67986536026001 -0.16851587593555
vn -0.96588939428329 0.25130692124367 0.06247011199594
vn -0.96456134319305 0.08631748706102 0.24934050440788
vn -0.30315944552422 -0.89953505992889 0.31453311443329
vn 0.00065310829086 0.9999333024025 0.01153145171702
vn 0.12517280876637 0.9920282959938 0.01454555056989
vn 0.72739678621292 0.60057932138443 -0.33196151256561
vn 0.98063743114471 -0.11150361597538 0.16098827123642
vn 0.41346088051796 -0.91025227308273 -0.02215715683997
vn -0.39545404911041 0.91619604825974 -0.0648146122694
vn -0.6361038684845 0.75767534971237 -0.14594501256943
vn -0.89707690477371 0.28999191522598 0.33340331912041
vn 0.63610380887985 0.75767534971237 -0.14594498276711
vn 0.61458832025528 0.4817553460598 0.62465435266495
vn -0.6058275103569 0.75922727584839 0.23779594898224
vn -0.70858782529831 0.60898381471634 -0.35642957687378
vn 0.44023212790489 -0.84914922714233 0.29178982973099
vn -0.71500861644745 0.27779075503349 -0.64155668020248
vn 0.96687811613083 -0.1700894087553 -0.19030594825745
vn -0.12387676537037 0.99226260185242 0.00833773240447
# 116 normals

vt 0 1 0
vt 1 1 0
vt 0.5 0 0
vt 0.87363022565842 0.00273156166077 0
vt 0.90136623382568 0.00970315933228 0
vt 0.91665518283844 0.08799159526825 0
vt 0.79331803321838 0.31141173839569 0
vt 0.91967034339905 0.11266255378723 0
vt 0.95934092998505 0.06028068065643 0
vt 0.92802345752716 0.09616243839264 0
vt 0.79805529117584 0.30813264846802 0
vt 0.73898726701736 0.11967885494232 0
vt 0.79507160186768 0.10681104660034 0
vt 0.82716703414917 0.06246340274811 0
vt 0.56457233428955 0.11082196235657 0
vt 0.80369520187378 0.37525272369385 0
vt 0.83160614967346 0.32568788528442 0
vt 0.81320035457611 0.33283150196075 0
vt 0.88291394710541 0.0507744550705 0
vt 0.97115236520767 0.08339166641235 0
vt 0.9555167555809 0.13031268119812 0
vt 0.94942498207092 0.12735593318939 0
vt 0.93213546276093 0.08482313156128 0
vt 0.86196231842041 0.26434004306793 0
vt 0.76106750965118 0.38534307479858 0
vt 0.81854093074799 0.28144419193268 0
vt 0.93295454978943 0.08113026618958 0
vt 0.85151207447052 0.06208992004395 0
vt 0.86477297544479 0.08936667442322 0
vt 0.87716680765152 0.18858671188354 0
vt 0.91119706630707 0.167160987854 0
vt 0.91022974252701 0.20072305202484 0
vt 0.93909776210785 0.15372252464294 0
vt 0.88023471832275 0.18131899833679 0
vt 0.43399411439896 0.91502487659454 0
vt 0.45328944921494 0.93492436408997 0
vt 0.45363292098045 0.94319599866867 0
vt 0.8494154214859 0.23335456848145 0
vt 0.83520126342773 0.31858813762665 0
vt 0.85472452640533 0.22854769229889 0
vt 0.95395076274872 0.22336149215698 0
vt 0.96713191270828 0.14912712574005 0
vt 0.96131861209869 0.15752291679382 0
vt 0.85157573223114 0.05985879898071 0
vt 0.89071410894394 0.08867919445038 0
vt 0.85132104158401 0.06878304481506 0
vt 0.90203166007996 0.22021889686584 0
vt 0.91022968292236 0.20072305202484 0
vt 0.71100109815598 0.40186750888824 0
vt 0.38770768046379 0.96114063262939 0
vt 0.3908599615097 0.96468532085419 0
vt 0.39808130264282 0.91731011867523 0
vt 0.71226751804352 0.40025317668915 0
vt 0.69797098636627 0.41326344013214 0
vt 0.78569674491882 0.32872641086578 0
vt 0.80998665094376 0.28977406024933 0
vt 0.88803970813751 0.16771590709686 0
vt 0.88023465871811 0.18131899833679 0
vt 0.89745259284973 0.15078604221344 0
vt 0.80962347984314 0.28937673568726 0
vt 0.9733659029007 0.06290984153748 0
vt 0.93623685836792 0.09156847000122 0
vt 0.98662996292114 0.0335521697998 0
vt 0.89745205640793 0.15078568458557 0
vt 0.99100852012634 0.20030927658081 0
vt 0.98748874664307 0.1917667388916 0
vt 0.86720699071884 0.21406948566437 0
vt 0.66697406768799 0.45582246780396 0
vt 0.68207025527954 0.42028272151947 0
vt 0.64523309469223 0.42885518074036 0
vt 0.84718012809753 0.24045324325562 0
vt 0.6666579246521 0.4285569190979 0
vt 0.80820429325104 0.37285101413727 0
vt 0.82760751247406 0.34327483177185 0
vt 0.81273221969604 0.37928545475006 0
vt 0.62470954656601 0.42815351486206 0
vt 0.71707928180695 0.3803848028183 0
vt 0.78925704956055 0.31541883945465 0
vt 0.82783508300781 0.26440167427063 0
vt 0.67365276813507 0.44479286670685 0
vt 0.8316684961319 0.31908619403839 0
vt 0.63073456287384 0.44822931289673 0
vt 0.68279838562012 0.46217334270477 0
vt 0.79575705528259 0.38314843177795 0
vt 0.79492330551147 0.39885652065277 0
vt 0.44669550657272 0.9479489326477 0
vt 0.41469871997833 0.89512532949448 0
vt 0.93083477020264 0.1783584356308 0
vt 0.92160165309906 0.20387899875641 0
vt 0.94540327787399 0.15762531757355 0
vt 0.59892839193344 0.42883038520813 0
vt 0.78925687074661 0.31541919708252 0
vt 0.76998579502106 0.33920502662659 0
vt 0.95395082235336 0.22336149215698 0
vt 0.97027337551117 0.08192586898804 0
vt 0.94942504167557 0.12735593318939 0
vt 0.67150592803955 0.50040167570114 0
vt 0.99264144897461 0.19724702835083 0
vt 0.59655040502548 0.4463062286377 0
vt 0.94817042350769 0.21074855327606 0
vt 0.94239008426666 0.19813561439514 0
vt 0.9529185295105 0.16881835460663 0
vt 0.95550531148911 0.1659187078476 0
vt 0.39658010005951 0.97517430782318 0
vt 0.3940122127533 0.96823006868362 0
vt 0.41469874978065 0.89512532949448 0
vt 0.41946479678154 0.99085187911987 0
vt 0.95230090618134 0.04443621635437 0
vt 0.4170817732811 0.9429886341095 0
vt 0.84006041288376 0.33289563655853 0
vt 0.83512789011002 0.33840930461884 0
vt 0.80919337272644 0.38808608055115 0
vt 0.86398255825043 0.28721690177917 0
vt 0.88631284236908 0.26117205619812 0
vt 0.84829699993134 0.31601119041443 0
vt 0.71108257770538 0.40222406387329 0
vt 0.87067496776581 0.28414177894592 0
vt 0.85222017765045 0.31218016147614 0
vt 0.71001625061035 0.40434265136719 0
vt 0.88749825954437 0.00621736049652 0
vt 0.922831594944 0.11612904071808 0
vt 0.89833152294159 0.15530836582184 0
vt 0.95801717042923 0.10304975509644 0
vt 0.95776426792145 0.13968431949615 0
vt 0.9189670085907 0.21357119083405 0
vt 0.95084881782532 0.15030682086945 0
vt 0.94455081224442 0.13393044471741 0
vt 0.68207037448883 0.42028272151947 0
vt 0.94926917552948 0.13154292106628 0
vt 0.84509813785553 0.23882365226746 0
vt 0.82982170581818 0.261927485466 0
vt 0.72909605503082 0.38488614559174 0
vt 0.74938881397247 0.36298739910126 0
vt 0.92005890607834 0.21451008319855 0
vt 0.93134009838104 0.185431599617 0
vt 0.9795013666153 0.06024587154388 0
vt 0.99323403835297 0.1532222032547 0
vt 0.98343425989151 0.13883578777313 0
vt 0.60069996118546 0.16517817974091 0
vt 0.6201297044754 0.10386192798615 0
vt 0.74254679679871 0.10818958282471 0
vt 0.95841193199158 0.16172087192535 0
vt 0.66346943378448 0.40736019611359 0
vt 0.80763494968414 0.37180089950562 0
vt 0.81347763538361 0.37657403945923 0
vt 0.78333228826523 0.30851483345032 0
vt 0.81356263160706 0.29382288455963 0
vt 0.97181963920593 0.07241785526276 0
vt 0.43975809216499 0.95270192623138 0
vt 0.90011346340179 0.15210211277008 0
vt 0.74256926774979 0.13857400417328 0
vt 0.76960325241089 0.34274792671204 0
vt 0.78388130664825 0.08453512191772 0
vt 0.90875923633575 0.13610422611237 0
vt 0.91598665714264 0.1224650144577 0
vt 0.76998567581177 0.33920538425446 0
vt 0.72614562511444 0.38961517810822 0
vt 0.69778192043304 0.41096889972687 0
vt 0.71226513385773 0.40024495124817 0
vt 0.74911892414093 0.36591601371765 0
vt 0.90850561857224 0.22561156749725 0
vt 0.9141206741333 0.21992290019989 0
vt 0.83015370368958 0.02694606781006 0
vt 0.64323741197586 0.42186987400055 0
vt 0.97585356235504 0.07921123504639 0
vt 0.94048500061035 0.14938843250275 0
vt 0.3454957306385 0.42765116691589 0
vt 0.86267280578613 0.21089720726013 0
vt 0.68514949083328 0.39687347412109 0
vt 0.74588310718536 0.08893036842346 0
vt 0.90481185913086 0.2122745513916 0
vt 0.65043783187866 0.3980815410614 0
vt 0.43848392367363 0.96205842494965 0
vt 0.84612321853638 0.2395852804184 0
vt 0.85727804899216 0.20677590370178 0
vt 0.66581082344055 0.40198457241058 0
vt 0.7014662027359 0.39365816116333 0
vt 0.91319060325623 0.12142467498779 0
vt 0.89776855707169 0.1510009765625 0
vt 0.89230608940125 0.14669251441956 0
vt 0.53462493419647 0.17198407649994 0
vt 0.56153804063797 0.11088681221008 0
vt 0.58095037937164 0.10485517978668 0
vt 0.61774283647537 0.41666626930237 0
vt 0.79293763637543 0.31995499134064 0
vt 0.87373274564743 0.19763326644897 0
vt 0.7722926735878 0.34615504741669 0
vt 0.74145311117172 0.35706233978271 0
vt 0.73257374763489 0.38896954059601 0
vt 0.43720975518227 0.97141498327255 0
vt 0.71544325351715 0.40505719184875 0
vt 0.92639970779419 0.09536898136139 0
vt 0.91318941116333 0.12142372131348 0
vt 0.93880546092987 0.0662567615509 0
vt 0.95717215538025 0.14071571826935 0
vt 0.9745032787323 0.08292579650879 0
vt 0.93627214431763 0.07785606384277 0
vt 0.89244425296783 0.16546475887299 0
vt 0.85714757442474 0.22290694713593 0
vt 0.80955082178116 0.11387932300568 0
vt 0.86441719532013 0.2795090675354 0
vt 0.84807205200195 0.31044709682465 0
vt 0.34549570083618 0.42765116691589 0
vt 0.84086471796036 0.04340243339539 0
vt 0.7907982468605 0.31729662418365 0
vt 0.76960331201553 0.34274792671204 0
vt 0.81128120422363 0.29119646549225 0
vt 0.86267274618149 0.21089720726013 0
vt 0.68248456716537 0.41777670383453 0
vt 0.69214433431625 0.40204465389252 0
vt 0.68031489849091 0.41836559772491 0
vt 0.74256920814514 0.13857400417328 0
vt 0.82914066314697 0.09443044662476 0
vt 0.82255983352661 0.25974071025848 0
vt 0.90017700195312 0.23116207122803 0
vt 0.88624435663223 0.26475095748901 0
vt 0.66288316249847 0.42098248004913 0
# 217 texture coordinates

o 044
usemtl default
f 1/3/1 9/2/1 10/1/1
f 1/3/3 3/2/3 9/1/3
f 3/3/4 4/2/4 9/1/4
f 4/3/5 5/2/5 9/1/5
f 5/3/6 10/2/6 9/1/6
f 7/3/7 10/2/7 5/1/7
f 8/3/8 10/2/8 7/1/8
f 8/3/9 1/2/9 10/1/9
f 2/3/10 11/2/10 12/1/10
f 2/3/11 12/2/11 3/1/11
f 12/3/12 4/2/12 3/1/12
f 12/3/13 6/2/13 4/1/13
f 12/3/14 11/2/14 6/1/14
f 11/3/15 7/2/15 6/1/15
f 11/3/16 8/2/16 7/1/16
f 11/3/17 2/2/17 8/1/17
f 1/3/18 8/2/18 2/1/18
f 1/3/19 2/2/19 3/1/19
f 4/3/20 6/2/20 5/1/20
f 6/3/21 7/2/21 5/1/21
f 34/6/22 58/5/22 65/4/22
f 51/10/25 40/9/24 45/8/23
f 59/14/28 42/13/27 16/12/26
f 26/18/30 41/17/29 59/16/28
f 64/22/33 50/21/32 18/20/31
f 30/26/36 21/25/35 25/24/34
f 60/6/37 28/29/37 14/28/37
f 15/33/40 28/32/39 20/31/38
f 37/37/41 38/36/41 44/35/41
f 38/39/44 52/16/43 61/17/42
f 48/43/45 13/42/45 29/41/45
f 14/46/46 58/29/46 34/45/46
f 58/48/47 25/24/47 65/47/47
f 35/52/48 26/51/48 13/50/48
f 23/55/51 26/18/50 31/54/49
f 45/59/23 36/58/53 54/57/52
f 62/63/56 17/62/55 18/61/54
f 25/66/58 24/41/58 65/65/57
f 49/69/60 31/54/49 53/68/59
f 23/26/51 36/71/53 43/24/61
f 42/75/27 61/74/42 52/73/43
f 30/79/36 23/78/51 47/77/62
f 25/24/65 21/25/64 38/81/63
f 20/31/66 43/24/61 36/71/53
f 39/85/68 52/84/43 55/83/67
f 35/87/69 13/36/69 37/86/69
f 50/90/32 14/89/71 28/88/70
f 47/77/62 63/93/72 30/92/36
f 50/21/32 15/96/74 57/95/73
f 26/18/30 33/97/76 53/68/75
f 29/41/77 43/66/77 22/98/77
f 48/102/78 65/101/78 24/100/78
f 58/48/81 27/31/80 25/24/79
f 44/87/82 38/105/82 61/104/82
f 38/81/63 21/25/64 52/16/43
f 51/108/25 62/63/83 40/9/24
f 42/112/27 41/111/29 37/110/84
f 37/115/86 48/114/86 38/113/85
f 48/114/86 37/118/86 13/117/87
f 22/120/88 28/5/88 60/6/88
f 54/122/52 27/31/89 17/121/55
f 58/126/90 14/125/71 50/124/32
f 46/128/92 55/83/91 21/25/35
f 23/131/51 30/79/36 36/130/53
f 63/133/72 47/77/62 46/132/92
f 20/31/38 40/9/93 15/96/40
f 55/83/67 52/16/43 21/25/64
f 62/63/95 56/136/94 57/61/73
f 29/41/96 13/138/96 43/137/96
f 26/18/50 53/68/59 31/54/49
f 50/15/32 28/140/70 15/139/74
f 48/142/97 24/41/97 38/42/97
f 41/74/29 42/145/27 59/144/28
f 43/24/98 20/31/38 28/32/39
f 37/110/84 61/111/42 42/112/27
f 40/9/93 57/148/99 15/96/40
f 20/31/66 45/150/23 40/9/24
f 21/25/35 63/152/72 46/128/92
f 26/18/30 59/16/28 33/97/76
f 59/84/28 16/85/26 33/97/76
f 23/78/51 31/156/49 47/77/62
f 19/143/100 31/159/49 49/158/60
f 14/162/101 65/161/102 48/114/101
f 14/28/103 22/163/103 60/6/103
f 50/21/32 56/165/94 18/20/31
f 58/48/81 64/166/104 27/31/80
f 36/58/53 32/168/105 54/57/52
f 18/61/54 17/62/55 64/22/104
f 28/48/106 22/171/106 43/24/106
f 37/173/107 44/87/107 61/107/107
f 32/174/105 30/26/36 25/24/34
f 31/159/49 19/176/100 47/77/62
f 45/59/23 54/179/52 17/178/55
f 58/183/90 50/182/32 64/181/33
f 30/185/36 63/152/72 21/25/35
f 20/31/66 36/186/53 45/150/23
f 57/61/99 40/9/93 62/63/108
f 32/174/105 25/24/34 27/31/89
f 37/173/109 41/190/109 35/87/109
f 51/194/25 45/193/23 17/192/55
f 56/196/94 50/195/32 57/20/73
f 32/199/105 27/31/89 54/198/52
f 29/41/110 22/101/110 48/102/110
f 56/136/94 62/63/95 18/61/31
f 13/202/111 26/18/111 43/201/111
f 14/204/112 34/6/112 65/163/112
f 17/62/55 27/31/80 64/22/104
f 51/108/25 17/62/55 62/63/56
f 43/24/61 26/18/50 23/26/51
f 36/58/53 30/79/36 32/208/105
f 47/77/62 19/143/113 46/209/92
f 41/104/114 26/105/114 35/87/114
f 42/13/27 52/213/43 39/212/68
f 38/138/115 24/41/58 25/137/58
f 48/216/101 22/215/116 14/125/101

