# Blender v2.80 (sub 75) OBJ File: 'Cactus_texturizado.blend'
# www.blender.org
mtllib Cactus_final.mtl
o cactus_Cylinder.003
v -0.855508 3.863729 0.875753
v -1.195994 4.285144 1.086632
v -0.991350 3.578660 0.752763
v -1.550701 4.147521 1.043474
v -1.137037 3.578660 0.446790
v -1.715313 4.147521 0.697754
v -1.146882 3.863729 0.263808
v -1.525219 4.285144 0.395192
v -1.011039 4.148798 0.386797
v -1.170512 4.422767 0.438350
v -0.865352 4.148798 0.692770
v -1.005900 4.422767 0.784070
v -1.685838 4.887614 1.140715
v -1.250852 4.816924 1.178546
v -1.875988 4.887614 0.741361
v -1.631152 4.816924 0.379838
v -1.196166 4.746234 0.417669
v -1.006016 4.746234 0.817023
v -1.588479 5.194388 1.051104
v -1.230306 5.136181 1.082255
v -1.745051 5.194388 0.722270
v -1.543450 5.136181 0.424587
v -1.185276 5.077973 0.455737
v -1.028704 5.077973 0.784571
v -1.437931 5.330966 0.857919
v -1.295529 5.307824 0.870303
v -1.500181 5.330966 0.727181
v -1.420029 5.307824 0.608828
v -1.277626 5.284682 0.621213
v -1.215376 5.284682 0.751950
v -0.476468 3.748133 0.573266
v -0.568153 3.555730 0.490256
v -0.666483 3.555730 0.283744
v -0.673127 3.748134 0.160242
v -0.581442 3.940536 0.243253
v -0.483113 3.940536 0.449764
v -0.261496 4.234741 -1.142364
v -0.285014 4.573793 -1.463730
v -0.123182 4.005388 -1.193409
v -0.122082 4.463068 -1.700588
v 0.149284 4.005387 -1.183298
v 0.185777 4.463068 -1.689163
v 0.283434 4.234741 -1.122143
v 0.330706 4.573793 -1.440881
v 0.145120 4.464095 -1.071098
v 0.167774 4.684518 -1.204024
v -0.127345 4.464095 -1.081209
v -0.140085 4.684518 -1.215448
v -0.141075 5.058513 -1.833182
v -0.330118 5.001639 -1.537094
v 0.214545 5.058514 -1.819985
v 0.381123 5.001639 -1.510700
v 0.192080 4.944765 -1.214612
v -0.163540 4.944765 -1.227809
v -0.113449 5.305329 -1.730370
v -0.269109 5.258499 -1.486566
v 0.179374 5.305330 -1.719503
v 0.316537 5.258499 -1.464833
v 0.160876 5.211668 -1.221030
v -0.131946 5.211668 -1.231896
v -0.031781 5.415214 -1.551039
v -0.093668 5.396595 -1.454108
v 0.084640 5.415214 -1.546719
v 0.139173 5.396595 -1.445467
v 0.077285 5.377975 -1.348536
v -0.039135 5.377975 -1.352856
v -0.187017 4.141738 -0.759376
v -0.093664 3.986939 -0.793828
v 0.090232 3.986939 -0.787004
v 0.180775 4.141738 -0.745728
v 0.087422 4.296537 -0.711276
v -0.096474 4.296537 -0.718101
v 1.260130 5.231114 -0.414508
v 1.747035 5.746568 -0.468355
v 1.345477 4.882432 -0.207254
v 2.116064 5.578235 -0.234177
v 1.345477 4.882432 0.207255
v 2.116063 5.578235 0.234179
v 1.260130 5.231113 0.414510
v 1.747035 5.746568 0.468357
v 1.174784 5.579796 0.207255
v 1.378006 5.914902 0.234179
v 1.174784 5.579796 -0.207254
v 1.378006 5.914902 -0.234177
v 2.316434 6.483480 -0.270507
v 1.855948 6.397015 -0.541015
v 2.316434 6.483480 0.270508
v 1.855948 6.397016 0.541016
v 1.395463 6.310551 0.270508
v 1.395463 6.310550 -0.270507
v 2.161796 6.858710 -0.222739
v 1.782625 6.787514 -0.445479
v 2.161795 6.858710 0.222741
v 1.782625 6.787514 0.445481
v 1.403454 6.716318 0.222741
v 1.403454 6.716318 -0.222739
v 1.893954 7.025766 -0.088556
v 1.743204 6.997460 -0.177113
v 1.893954 7.025766 0.088558
v 1.743204 6.997460 0.177114
v 1.592453 6.969154 0.088558
v 1.592453 6.969153 -0.088556
v 0.682480 5.089723 -0.279766
v 0.740083 4.854385 -0.139883
v 0.740083 4.854385 0.139884
v 0.682480 5.089723 0.279768
v 0.624876 5.325061 0.139884
v 0.624876 5.325061 -0.139883
v -0.000000 0.000000 -0.346909
v 0.000000 2.000000 -0.604416
v 0.245301 0.000000 -0.245301
v 0.427387 2.000000 -0.427387
v 0.346909 -0.000000 0.000000
v 0.604416 2.000000 -0.000000
v 0.245301 0.000000 0.245301
v 0.427387 2.000000 0.427386
v -0.000000 0.000000 0.346908
v -0.000000 2.000000 0.604416
v -0.245301 0.000000 0.245301
v -0.427387 2.000000 0.427386
v -0.346909 0.000000 -0.000000
v -0.604416 2.000000 0.000000
v -0.245301 0.000000 -0.245301
v -0.427387 2.000000 -0.427386
v 0.574545 4.000664 -0.574544
v 0.000000 4.000664 -0.812529
v 0.812529 4.000664 0.000000
v 0.574545 4.000664 0.574544
v 0.000000 4.000663 0.812529
v -0.574545 4.000664 0.574544
v -0.812529 4.000664 0.000000
v -0.574545 4.000664 -0.574544
v 0.640249 6.001327 -0.640249
v -0.000000 6.001328 -0.905449
v 0.905449 6.001328 0.000000
v 0.640249 6.001328 0.640249
v -0.000000 6.001328 0.905449
v -0.640249 6.001328 0.640249
v -0.905449 6.001328 0.000000
v -0.640249 6.001328 -0.640249
v 0.463021 7.011257 -0.463021
v -0.000000 7.011256 -0.654810
v 0.654810 7.011256 0.000000
v 0.463021 7.011256 0.463021
v -0.000000 7.011257 0.654810
v -0.463021 7.011256 0.463021
v -0.654810 7.011257 -0.000000
v -0.463021 7.011256 -0.463021
v 0.178329 7.418773 -0.178329
v 0.000000 7.418772 -0.252195
v 0.252195 7.418772 -0.000000
v 0.178329 7.418772 0.178329
v 0.000000 7.418773 0.252195
v -0.178329 7.418772 0.178329
v -0.252195 7.418772 -0.000000
v -0.178329 7.418773 -0.178329
vt 0.431689 0.867260
vt 0.429555 0.818229
vt 0.449172 0.839346
vt 0.448754 0.889685
vt 0.462717 0.838965
vt 0.459507 0.895041
vt 0.357869 0.900471
vt 0.354665 0.842065
vt 0.373697 0.819109
vt 0.372908 0.868884
vt 0.393045 0.794033
vt 0.393793 0.833079
vt 0.361359 0.744289
vt 0.378145 0.747906
vt 0.409947 0.793854
vt 0.409998 0.832910
vt 0.397981 0.859904
vt 0.386475 0.879322
vt 0.393907 0.750189
vt 0.386618 0.710549
vt 0.397704 0.713847
vt 0.409464 0.750715
vt 0.424608 0.749403
vt 0.440226 0.747011
vt 0.456903 0.744181
vt 0.375087 0.704458
vt 0.392770 0.686943
vt 0.397381 0.690215
vt 0.431055 0.710441
vt 0.443425 0.703954
vt 0.408612 0.714872
vt 0.419609 0.713802
vt 0.419261 0.689117
vt 0.413703 0.686893
vt 0.412850 0.680967
vt 0.417555 0.677266
vt 0.423113 0.679490
vt 0.423966 0.685416
vt 0.413946 0.691408
vt 0.408359 0.692370
vt 0.402752 0.692001
vt 0.406976 0.913036
vt 0.434840 0.899743
vt 0.440744 0.908149
vt 0.418783 0.929848
vt 0.390919 0.943141
vt 0.385015 0.934735
vt 0.406193 0.860088
vt 0.419851 0.879572
vt 0.376500 0.900469
vt 0.301721 0.868799
vt 0.301138 0.820243
vt 0.313539 0.827872
vt 0.311836 0.887068
vt 0.325468 0.822324
vt 0.321920 0.885947
vt 0.251708 0.889562
vt 0.248407 0.821391
vt 0.262153 0.807104
vt 0.262717 0.860383
vt 0.274857 0.799071
vt 0.275097 0.833898
vt 0.252932 0.740596
vt 0.265195 0.749938
vt 0.287968 0.805780
vt 0.287753 0.839485
vt 0.278233 0.865562
vt 0.270848 0.880870
vt 0.276430 0.764412
vt 0.273534 0.722448
vt 0.280613 0.734808
vt 0.288641 0.771618
vt 0.300874 0.765282
vt 0.313013 0.751968
vt 0.325886 0.743192
vt 0.266319 0.711865
vt 0.278711 0.703012
vt 0.281594 0.708002
vt 0.306689 0.724050
vt 0.314457 0.713491
vt 0.289471 0.740775
vt 0.298747 0.735875
vt 0.299530 0.708804
vt 0.292178 0.709863
vt 0.287953 0.705924
vt 0.291081 0.700925
vt 0.298433 0.699866
vt 0.302658 0.703805
vt 0.295048 0.714644
vt 0.290311 0.716917
vt 0.285719 0.714116
vt 0.308425 0.918530
vt 0.307272 0.899577
vt 0.315426 0.901296
vt 0.324733 0.921968
vt 0.325886 0.940921
vt 0.317732 0.939202
vt 0.285028 0.868766
vt 0.295140 0.886723
vt 0.263867 0.900499
vt 0.336810 0.409286
vt 0.336341 0.491523
vt 0.317183 0.475961
vt 0.320827 0.372836
vt 0.298621 0.470925
vt 0.306925 0.366147
vt 0.406104 0.364034
vt 0.411856 0.470704
vt 0.393140 0.481801
vt 0.392086 0.400908
vt 0.374508 0.497941
vt 0.373348 0.444903
vt 0.411856 0.592553
vt 0.393407 0.567791
vt 0.355025 0.502668
vt 0.355112 0.449156
vt 0.368732 0.395494
vt 0.379945 0.369565
vt 0.374683 0.550063
vt 0.384933 0.612993
vt 0.372117 0.597575
vt 0.355641 0.554931
vt 0.337675 0.576738
vt 0.319820 0.595149
vt 0.298310 0.593946
vt 0.393977 0.637364
vt 0.376138 0.653489
vt 0.372626 0.642412
vt 0.332887 0.634182
vt 0.315537 0.640250
vt 0.357522 0.600827
vt 0.344374 0.618031
vt 0.342684 0.651996
vt 0.350129 0.660079
vt 0.350139 0.672590
vt 0.342703 0.677017
vt 0.335258 0.668933
vt 0.335248 0.656423
vt 0.350536 0.644056
vt 0.358965 0.635889
vt 0.366261 0.634818
vt 0.355698 0.332372
vt 0.330008 0.348693
vt 0.321014 0.342668
vt 0.337709 0.320323
vt 0.363398 0.304003
vt 0.372393 0.310028
vt 0.358798 0.398071
vt 0.346403 0.374342
vt 0.388842 0.344736
vt 0.143613 0.973873
vt 0.152644 0.715354
vt 0.170615 0.709290
vt 0.153959 0.970473
vt 0.188136 0.710992
vt 0.163997 0.971561
vt 0.081170 0.973616
vt 0.044165 0.714614
vt 0.062684 0.720036
vt 0.091823 0.976619
vt 0.081398 0.728488
vt 0.102604 0.981403
vt 0.099492 0.734100
vt 0.113019 0.984591
vt 0.117013 0.732909
vt 0.123094 0.983898
vt 0.013405 0.455102
vt 0.038093 0.463382
vt 0.134643 0.725199
vt 0.133241 0.979483
vt 0.146098 0.978005
vt 0.170330 0.980631
vt 0.169250 0.992371
vt 0.161388 0.999904
vt 0.151351 0.998816
vt 0.145017 0.989745
vt 0.134295 0.471333
vt 0.110707 0.481836
vt 0.103674 0.234446
vt 0.128768 0.222478
vt 0.087177 0.483330
vt 0.062973 0.475425
vt 0.182141 0.448785
vt 0.205838 0.450092
vt 0.158218 0.457675
vt 0.052626 0.225646
vt 0.026618 0.209615
vt 0.048087 0.084227
vt 0.064315 0.099705
vt 0.078337 0.235701
vt 0.000096 0.195892
vt 0.153700 0.205831
vt 0.179042 0.192769
vt 0.205838 0.189653
vt 0.132294 0.085543
vt 0.116317 0.099526
vt 0.105416 0.039493
vt 0.113011 0.032772
vt 0.148187 0.072030
vt 0.167171 0.062582
vt 0.099242 0.108658
vt 0.081523 0.108952
vt 0.031860 0.067663
vt 0.120034 0.026057
vt 0.110616 0.023783
vt 0.104529 0.015238
vt 0.105339 0.005426
vt 0.112572 0.000096
vt 0.121991 0.002370
vt 0.128077 0.010915
vt 0.127267 0.020727
vt 0.089040 0.043381
vt 0.097230 0.043642
vt 0.074229 0.031058
vt 0.081145 0.038748
vt 0.068385 0.023088
vn 0.0498 -0.4149 0.9085
vn -0.6051 -0.7422 0.2881
vn -0.6739 -0.4149 -0.6114
vn 0.0640 0.2999 -0.9518
vn -0.8184 -0.1593 -0.5521
vn 0.7720 0.5185 -0.3676
vn 0.7792 0.2999 0.5503
vn -0.0912 0.4308 -0.8978
vn 0.1038 0.1100 -0.9885
vn 0.8375 -0.0259 0.5459
vn 0.1042 -0.0259 -0.9942
vn -0.8815 -0.2161 0.4197
vn 0.9020 0.0441 -0.4295
vn -0.0873 -0.1593 0.9834
vn -0.4295 0.7860 -0.4446
vn -0.8348 0.3810 0.3975
vn 0.9027 0.0197 -0.4298
vn -0.7649 0.2907 -0.5748
vn -0.0359 0.2907 0.9561
vn 0.8328 0.1100 0.5425
vn 0.1666 0.9828 -0.0793
vn 0.0744 0.7860 0.6137
vn 0.6749 0.6612 0.3278
vn 0.1710 0.6612 -0.7305
vn -0.4778 0.8485 0.2275
vn 0.7232 0.5987 -0.3443
vn 0.8770 -0.2377 -0.4176
vn -0.0418 -0.9989 0.0199
vn 0.3795 0.9074 -0.1807
vn 0.4289 -0.5224 0.7370
vn -0.3018 -0.5224 -0.7975
vn 0.6395 0.4308 0.6367
vn -0.8283 -0.4149 -0.3766
vn 0.0249 -0.7422 -0.6697
vn 0.8539 -0.4149 -0.3141
vn 0.8140 0.2999 0.4975
vn 0.8683 -0.1593 -0.4697
vn -0.0317 0.5185 0.8545
vn -0.8486 0.2999 0.4358
vn 0.8380 0.4308 0.3350
vn 0.8280 0.1100 0.5498
vn -0.8716 -0.0259 0.4895
vn 0.8330 -0.0259 0.5527
vn 0.0362 -0.2161 -0.9757
vn -0.0370 0.0441 0.9983
vn -0.8311 -0.1593 -0.5328
vn 0.5929 0.7861 -0.1748
vn 0.0343 0.3810 -0.9239
vn -0.0371 0.0197 0.9991
vn 0.8637 0.2907 -0.4117
vn -0.8308 0.2907 -0.4746
vn -0.8665 0.1100 0.4869
vn -0.0068 0.9828 0.1844
vn -0.5783 0.7860 -0.2183
vn -0.6030 0.6612 0.4464
vn 0.5683 0.6612 0.4898
vn 0.0196 0.8485 -0.5288
vn -0.0297 0.5987 0.8004
vn -0.0360 -0.2377 0.9707
vn 0.0017 -0.9989 -0.0462
vn -0.0156 0.9074 0.4200
vn -0.8518 -0.5224 0.0388
vn 0.8466 -0.5224 0.1018
vn -0.8605 0.4308 0.2720
vn 0.3456 -0.4149 -0.8417
vn 0.6702 -0.7422 0.0000
vn 0.3456 -0.4149 0.8417
vn -0.4670 0.2999 0.8319
vn 0.5016 -0.1593 0.8503
vn -0.8551 0.5185 0.0000
vn -0.4670 0.2999 -0.8319
vn -0.3037 0.4308 0.8498
vn -0.5187 0.1100 0.8478
vn -0.5215 -0.0259 -0.8529
vn -0.5215 -0.0259 0.8529
vn 0.9764 -0.2161 0.0000
vn -0.9990 0.0441 -0.0000
vn 0.5016 -0.1593 -0.8503
vn 0.1967 0.7860 0.5860
vn 0.9246 0.3810 0.0000
vn -0.9998 0.0197 0.0000
vn 0.4435 0.2907 0.8478
vn 0.4435 0.2907 -0.8478
vn -0.5187 0.1100 -0.8478
vn -0.1845 0.9828 0.0000
vn 0.1967 0.7860 -0.5860
vn -0.4684 0.6612 -0.5860
vn -0.4684 0.6612 0.5860
vn 0.5292 0.8485 0.0000
vn -0.8010 0.5987 0.0000
vn -0.9713 -0.2378 -0.0000
vn 0.0463 -0.9989 0.0000
vn -0.4203 0.9074 0.0000
vn -0.0704 -0.5224 -0.8498
vn -0.0704 -0.5224 0.8498
vn -0.3037 0.4308 -0.8498
vn 0.3800 -0.1181 -0.9174
vn 0.9174 -0.1181 -0.3800
vn 0.9174 -0.1181 0.3800
vn 0.3800 -0.1181 0.9174
vn -0.3800 -0.1181 0.9174
vn -0.9174 -0.1181 0.3800
vn 0.9196 -0.0957 0.3809
vn -0.9174 -0.1181 -0.3800
vn -0.3800 -0.1181 -0.9174
vn -0.0000 -1.0000 0.0000
vn -0.9230 -0.0429 -0.3823
vn -0.9196 -0.0957 0.3809
vn 0.3809 -0.0957 0.9196
vn -0.9196 -0.0957 -0.3809
vn 0.9196 -0.0957 -0.3809
vn -0.3809 -0.0957 0.9196
vn -0.3809 -0.0957 -0.9196
vn 0.3809 -0.0957 -0.9196
vn 0.3730 0.2235 0.9005
vn -0.3823 -0.0429 0.9230
vn 0.9230 -0.0429 0.3823
vn 0.3823 -0.0429 -0.9230
vn -0.3823 -0.0429 -0.9230
vn -0.9230 -0.0429 0.3823
vn 0.3823 -0.0429 0.9230
vn 0.9230 -0.0429 -0.3823
vn -0.2826 0.6742 -0.6824
vn 0.9005 0.2235 -0.3730
vn -0.9005 0.2235 -0.3730
vn -0.3730 0.2235 0.9005
vn 0.9005 0.2235 0.3730
vn 0.3730 0.2235 -0.9005
vn -0.3730 0.2235 -0.9005
vn -0.9005 0.2235 0.3730
vn 0.0000 1.0000 -0.0000
vn -0.6824 0.6742 0.2826
vn 0.2826 0.6742 0.6824
vn 0.6824 0.6742 -0.2826
vn -0.6824 0.6742 -0.2826
vn -0.2826 0.6742 0.6824
vn 0.6824 0.6742 0.2826
vn 0.2826 0.6742 -0.6824
usemtl Material
s off
f 1/1/1 2/2/1 4/3/1 3/4/1
f 3/4/2 4/3/2 6/5/2 5/6/2
f 5/7/3 6/8/3 8/9/3 7/10/3
f 7/10/4 8/9/4 10/11/4 9/12/4
f 8/9/5 6/8/5 15/13/5 16/14/5
f 9/12/6 10/11/6 12/15/6 11/16/6
f 11/16/7 12/15/7 2/2/7 1/1/7
f 7/10/8 9/12/8 35/17/8 34/18/8
f 17/19/9 16/14/9 22/20/9 23/21/9
f 2/2/10 12/15/10 18/22/10 14/23/10
f 10/11/11 8/9/11 16/14/11 17/19/11
f 6/5/12 4/3/12 13/24/12 15/25/12
f 12/15/13 10/11/13 17/19/13 18/22/13
f 4/3/14 2/2/14 14/23/14 13/24/14
f 22/20/15 21/26/15 27/27/15 28/28/15
f 15/25/16 13/24/16 19/29/16 21/30/16
f 18/22/17 17/19/17 23/21/17 24/31/17
f 16/14/18 15/13/18 21/26/18 22/20/18
f 13/24/19 14/23/19 20/32/19 19/29/19
f 14/23/20 18/22/20 24/31/20 20/32/20
f 25/33/21 26/34/21 30/35/21 29/36/21 28/37/21 27/38/21
f 19/29/22 20/32/22 26/39/22 25/33/22
f 20/32/23 24/31/23 30/40/23 26/39/23
f 23/21/24 22/20/24 28/28/24 29/41/24
f 21/30/25 19/29/25 25/33/25 27/38/25
f 24/31/26 23/21/26 29/41/26 30/40/26
f 31/42/27 32/43/27 33/44/27 34/45/27 35/46/27 36/47/27
f 3/4/28 5/6/28 33/44/28 32/43/28
f 9/12/29 11/16/29 36/48/29 35/17/29
f 1/1/30 3/4/30 32/43/30 31/49/30
f 5/7/31 7/10/31 34/18/31 33/50/31
f 11/16/32 1/1/32 31/49/32 36/48/32
f 37/51/33 38/52/33 40/53/33 39/54/33
f 39/54/34 40/53/34 42/55/34 41/56/34
f 41/57/35 42/58/35 44/59/35 43/60/35
f 43/60/36 44/59/36 46/61/36 45/62/36
f 44/59/37 42/58/37 51/63/37 52/64/37
f 45/62/38 46/61/38 48/65/38 47/66/38
f 47/66/39 48/65/39 38/52/39 37/51/39
f 43/60/40 45/62/40 71/67/40 70/68/40
f 53/69/41 52/64/41 58/70/41 59/71/41
f 38/52/42 48/65/42 54/72/42 50/73/42
f 46/61/43 44/59/43 52/64/43 53/69/43
f 42/55/44 40/53/44 49/74/44 51/75/44
f 48/65/45 46/61/45 53/69/45 54/72/45
f 40/53/46 38/52/46 50/73/46 49/74/46
f 58/70/47 57/76/47 63/77/47 64/78/47
f 51/75/48 49/74/48 55/79/48 57/80/48
f 54/72/49 53/69/49 59/71/49 60/81/49
f 52/64/50 51/63/50 57/76/50 58/70/50
f 49/74/51 50/73/51 56/82/51 55/79/51
f 50/73/52 54/72/52 60/81/52 56/82/52
f 61/83/53 62/84/53 66/85/53 65/86/53 64/87/53 63/88/53
f 55/79/54 56/82/54 62/89/54 61/83/54
f 56/82/55 60/81/55 66/90/55 62/89/55
f 59/71/56 58/70/56 64/78/56 65/91/56
f 57/80/57 55/79/57 61/83/57 63/88/57
f 60/81/58 59/71/58 65/91/58 66/90/58
f 67/92/59 68/93/59 69/94/59 70/95/59 71/96/59 72/97/59
f 39/54/60 41/56/60 69/94/60 68/93/60
f 45/62/61 47/66/61 72/98/61 71/67/61
f 37/51/62 39/54/62 68/93/62 67/99/62
f 41/57/63 43/60/63 70/68/63 69/100/63
f 47/66/64 37/51/64 67/99/64 72/98/64
f 73/101/65 74/102/65 76/103/65 75/104/65
f 75/104/66 76/103/66 78/105/66 77/106/66
f 77/107/67 78/108/67 80/109/67 79/110/67
f 79/110/68 80/109/68 82/111/68 81/112/68
f 80/109/69 78/108/69 87/113/69 88/114/69
f 81/112/70 82/111/70 84/115/70 83/116/70
f 83/116/71 84/115/71 74/102/71 73/101/71
f 79/110/72 81/112/72 107/117/72 106/118/72
f 89/119/73 88/114/73 94/120/73 95/121/73
f 74/102/74 84/115/74 90/122/74 86/123/74
f 82/111/75 80/109/75 88/114/75 89/119/75
f 78/105/76 76/103/76 85/124/76 87/125/76
f 84/115/77 82/111/77 89/119/77 90/122/77
f 76/103/78 74/102/78 86/123/78 85/124/78
f 94/120/79 93/126/79 99/127/79 100/128/79
f 87/125/80 85/124/80 91/129/80 93/130/80
f 90/122/81 89/119/81 95/121/81 96/131/81
f 88/114/82 87/113/82 93/126/82 94/120/82
f 85/124/83 86/123/83 92/132/83 91/129/83
f 86/123/84 90/122/84 96/131/84 92/132/84
f 97/133/85 98/134/85 102/135/85 101/136/85 100/137/85 99/138/85
f 91/129/86 92/132/86 98/139/86 97/133/86
f 92/132/87 96/131/87 102/140/87 98/139/87
f 95/121/88 94/120/88 100/128/88 101/141/88
f 93/130/89 91/129/89 97/133/89 99/138/89
f 96/131/90 95/121/90 101/141/90 102/140/90
f 103/142/91 104/143/91 105/144/91 106/145/91 107/146/91 108/147/91
f 75/104/92 77/106/92 105/144/92 104/143/92
f 81/112/93 83/116/93 108/148/93 107/117/93
f 73/101/94 75/104/94 104/143/94 103/149/94
f 77/107/95 79/110/95 106/118/95 105/150/95
f 83/116/96 73/101/96 103/149/96 108/148/96
f 109/151/97 110/152/97 112/153/97 111/154/97
f 111/154/98 112/153/98 114/155/98 113/156/98
f 113/157/99 114/158/99 116/159/99 115/160/99
f 115/160/100 116/159/100 118/161/100 117/162/100
f 117/162/101 118/161/101 120/163/101 119/164/101
f 119/164/102 120/163/102 122/165/102 121/166/102
f 116/159/103 114/158/103 127/167/103 128/168/103
f 121/166/104 122/165/104 124/169/104 123/170/104
f 123/170/105 124/169/105 110/152/105 109/151/105
f 109/171/106 111/154/106 113/156/106 115/172/106 117/173/106 119/174/106 121/175/106 123/176/106
f 132/177/107 131/178/107 139/179/107 140/180/107
f 122/165/108 120/163/108 130/181/108 131/178/108
f 118/161/109 116/159/109 128/168/109 129/182/109
f 124/169/110 122/165/110 131/178/110 132/177/110
f 114/155/111 112/153/111 125/183/111 127/184/111
f 120/163/112 118/161/112 129/182/112 130/181/112
f 110/152/113 124/169/113 132/177/113 126/185/113
f 112/153/114 110/152/114 126/185/114 125/183/114
f 137/186/115 136/187/115 144/188/115 145/189/115
f 130/181/116 129/182/116 137/186/116 138/190/116
f 128/168/117 127/167/117 135/191/117 136/187/117
f 125/183/118 126/185/118 134/192/118 133/193/118
f 126/185/119 132/177/119 140/180/119 134/192/119
f 131/178/120 130/181/120 138/190/120 139/179/120
f 129/182/121 128/168/121 136/187/121 137/186/121
f 127/184/122 125/183/122 133/193/122 135/194/122
f 142/195/123 148/196/123 156/197/123 150/198/123
f 135/194/124 133/193/124 141/199/124 143/200/124
f 140/180/125 139/179/125 147/201/125 148/196/125
f 138/190/126 137/186/126 145/189/126 146/202/126
f 136/187/127 135/191/127 143/203/127 144/188/127
f 133/193/128 134/192/128 142/195/128 141/199/128
f 134/192/129 140/180/129 148/196/129 142/195/129
f 139/179/130 138/190/130 146/202/130 147/201/130
f 149/204/131 150/205/131 156/206/131 155/207/131 154/208/131 153/209/131 152/210/131 151/211/131
f 147/201/132 146/202/132 154/212/132 155/213/132
f 145/189/133 144/188/133 152/214/133 153/215/133
f 143/200/134 141/199/134 149/204/134 151/211/134
f 148/196/135 147/201/135 155/213/135 156/197/135
f 146/202/136 145/189/136 153/215/136 154/212/136
f 144/188/137 143/203/137 151/216/137 152/214/137
f 141/199/138 142/195/138 150/198/138 149/204/138
